<svg id="Layer_1" enable-background="new 0 0 511.947 511.947" height="72" viewBox="0 0 511.947 511.947" width="72" xmlns="http://www.w3.org/2000/svg"><g><g><g><g><g><path d="m59.357 473.254-.009-356.32c0-38.6 32.293-74.6 74.327-74.07h244.598c40.701.136 74.327 33.136 74.327 74.07v352.872s-57.104 34.642-62.626 34.642h-268.766z" fill="#54768a"/><path d="m183.759 42.864h144.43l-72.215 340.92z" fill="#fff"/><g fill="#395a6e"><path d="m183.759 42.864h-30.172l-31.343 86.613 46.316 55.811-9.553 90.501 96.88 107.995z"/><path d="m328.189 42.864h30.171l31.343 86.613-46.316 55.811 9.553 90.501-96.879 107.995z"/></g></g></g><g fill="#e0efff"><path d="m121.208 504.448h-51.851c-5.523 0-10-4.477-10-10v-24.642h61.851z"/><path d="m442.6 504.448h-51.851v-34.642h61.851v24.642c0 5.523-4.477 10-10 10z"/></g></g><g><path d="m232.842 76.608-48.993-33.729 20.412-35.379 52.393 35.495z" fill="#e0efff"/></g><g><path d="m279.195 76.608 48.994-33.729-20.413-35.379-52.393 35.495z" fill="#e0efff"/></g><path d="m204.261 7.5h103.515l-51.122 35.495z" fill="#bfdeff"/><g fill="#ff5492"><path d="m232.842 76.608 15.451 35.7h15.451l15.451-35.7-22.541-33.613z"/><path d="m248.293 112.308h15.451l23.91 120.674-31.68 150.802-31.596-150.802z"/></g></g><g><path d="m378.273 35.364c-15.254 0-30.508 0-45.762 0l-18.239-31.612c-1.322-2.292-3.852-3.752-6.496-3.752h-103.515c-2.63 0-5.179 1.469-6.496 3.752l-18.239 31.612c-15.284 0-30.568 0-45.851 0-20.368 0-40.957 8.526-56.487 23.392-16.341 15.642-25.34 36.303-25.34 58.178l.01 377.515c0 9.046 6.9 16.511 15.713 17.408.588.06 1.184.091 1.787.091h373.242c9.649 0 17.5-7.851 17.5-17.5v-377.514c0-44.828-36.696-81.419-81.827-81.57zm66.827 81.57v345.372h-46.688c-.007-12.254-.064-24.528-.174-36.977-.086-9.8-15.086-9.669-14.999.133.127 14.417.009 71.485.009 71.485h-119.774v-110.195l95.049-105.955c1.417-1.579 2.098-3.685 1.875-5.795l-9.221-87.357 44.298-53.377c1.699-2.047 2.186-4.841 1.281-7.342l-27.706-76.562h9.198c36.862.123 66.852 29.986 66.852 66.57zm-270.768 63.564-43.575-52.506 28.092-77.628h18.832l10.215 48.225c1.983 9.36 16.687 6.392 14.675-3.109l-7.59-35.831 31.835 21.917 13.666 31.576-16.517 83.341-11.986-56.586c-1.945-9.183-16.708-6.491-14.675 3.108l45.545 215.015-76.034-84.758 9.203-87.187c.213-2.01-.395-4.021-1.686-5.577zm178.766-130.134 28.092 77.628-43.575 52.506c-1.291 1.556-1.899 3.567-1.687 5.577l9.203 87.187-76.062 84.789c18.886-89.441 38.03-179.665 56.601-267.187l8.593-40.5zm-82.462 27.137-11.818 27.307h-5.599l-11.818-27.306 14.618-20.635zm-16.183 42.307h3.132l22.514 113.634c-8.046 37.976-16.114 76.094-24.138 114.088l-24.095-113.751zm33.549 76.345-16.447-83.011 13.666-31.576 31.722-21.839c.001-.001-21.218 99.999-28.941 136.426zm-6.807-130.027-14.202-21.179 38.362-26.636 12.876 22.318zm2.139-51.126-27.315 18.505-27.315-18.505zm-76.605 3.23 39.379 26.679-4.211 5.945-10.897 15.38-37.194-25.605zm-119.17 51.362c12.766-12.22 29.574-19.228 46.115-19.228h9.223l-27.706 76.562c-.905 2.501-.418 5.295 1.281 7.342l44.298 53.377-9.221 87.357c-.223 2.11.458 4.216 1.875 5.795l95.049 105.955v110.195h-119.765v-27.142-272.02c0-9.386-15-9.813-15 0v264.521h-46.852l-.009-345.372c0-17.745 7.356-34.557 20.712-47.342zm-19.174 427.158c-.897-.38-1.528-1.269-1.528-2.303v-17.142h46.851v19.642h-44.351c-.345 0-.673-.07-.972-.197zm376.715-2.303c0 1.379-1.122 2.5-2.5 2.5h-44.302c.047-6.572.08-13.114.098-19.642h46.704z"/><path d="m390.74 190.285c-4.112 0-7.516 3.416-7.5 7.528.233 60.95.233 122.42 0 182.701-.038 9.802 14.962 9.86 15 .059.233-60.32.233-121.828 0-182.816-.016-4.133-3.371-7.472-7.5-7.472z"/><path d="m222.787 423.519c9.652 0 9.668-15 0-15-9.652 0-9.668 15 0 15z"/><path d="m289.16 408.519c-9.652 0-9.668 15 0 15 9.652 0 9.668-15 0-15z"/><path d="m222.787 465.753c9.652 0 9.668-15 0-15-9.652 0-9.668 15 0 15z"/><path d="m289.16 450.753c-9.652 0-9.668 15 0 15 9.652 0 9.668-15 0-15z"/></g></g></svg>